<?xml version="1.0" standalone="no"?>
<svg viewBox="0 0 200 200" xmlns="http://www.w3.org/2000/svg">
  <path fill="#1D4ED8" d="M44.7,-79.3C57.3,-70.2,66.4,-56.9,74.4,-43C82.4,-29,89.3,-14.5,88,-0.8C86.6,13,77.1,26,68.7,39.3C60.4,52.6,53.3,66.3,42,75.6C30.8,84.9,15.4,89.9,0,89.8C-15.3,89.7,-30.6,84.6,-41.6,75.1C-52.6,65.7,-59.4,51.9,-68.1,38.7C-76.9,25.5,-87.6,12.7,-90.8,-1.9C-94.1,-16.5,-89.8,-33,-80,-44.3C-70.1,-55.6,-54.6,-61.7,-40.4,-69.8C-26.1,-78,-13,-88.1,1.5,-90.7C16.1,-93.4,32.1,-88.4,44.7,-79.3Z" transform="translate(100 100)" />
</svg>
